# xmcd
#
# Track frame offsets: 
#        150
#        20240
#        36968
#        60522
#        87026
#        112780
#        136604
#        170255
#        200227
#        231612
#        267876
#        292621
#        315740
#
# Disc length: 4546 seconds
#
# Revision: 1
# Processed by: cddbd v1.5.2PL0 Copyright (c) Steve Scherf et al.
# Submitted via: ExactAudioCopyFreeDBPlugin 1.0
#
DISCID=ae11c00d
DTITLE=Riley, Lucinda - Das Orchideenhaus
DYEAR=2011
DGENRE=Speech
TTITLE0=41 Das Orchideenhaus
TTITLE1=42 Das Orchideenhaus
TTITLE2=43 Das Orchideenhaus
TTITLE3=44 Das Orchideenhaus
TTITLE4=45 Das Orchideenhaus
TTITLE5=46 Das Orchideenhaus
TTITLE6=47 Das Orchideenhaus
TTITLE7=48 Das Orchideenhaus
TTITLE8=49 Das Orchideenhaus
TTITLE9=50 Das Orchideenhaus
TTITLE10=51 Das Orchideenhaus
TTITLE11=52 Das Orchideenhaus
TTITLE12=53 Das Orchideenhaus
EXTD=gelesen von Simone Kabst
EXTT0=
EXTT1=
EXTT2=
EXTT3=
EXTT4=
EXTT5=
EXTT6=
EXTT7=
EXTT8=
EXTT9=
EXTT10=
EXTT11=
EXTT12=
PLAYORDER=
